<?xml version="1.0" encoding="utf-8"?>
<!-- Generator: Adobe Illustrator 25.2.3, SVG Export Plug-In . SVG Version: 6.00 Build 0)  -->
<svg version="1.1" id="Ebene_1" xmlns="http://www.w3.org/2000/svg" xmlns:xlink="http://www.w3.org/1999/xlink" x="0px" y="0px"
	 viewBox="0 0 54.3 80.6" style="enable-background:new 0 0 54.3 80.6;" xml:space="preserve">
<style type="text/css">
	.st0{fill:#FFFFFF;}
	.st1{fill:#0000FF;}
	.st2{fill:#00FFCE;}
	.st3{fill:#000505;}
	.st4{fill:#B3B3B3;}
	.st5{fill:#E6E6E6;}
	.st6{fill:#CCCCCC;}
</style>
<g>
	<path class="st0" d="M28.4,3.9l2.2,1l-1,2.2l2.2,1l-1,2.2l0,0l0,0l0,0l-1,2.2l-1,2.2l-1,2.2l0,0l0,0l2.2,1l2.2,1l-1,2.2l0,0l2.2,1
		l1-2.2l2.2,1l2.2,1l0,0l0,0l1-2.2l1-2.2l1-2.2l0,0l0,0l0,0l1-2.2l2.2,1l1-2.2l2.2,1l0,0l2.2,1l-1,2.2l2.2,1l-1,2.2l0,0l0,0l-1,2.2
		l-1,2.2l-1,2.2l0,0L47.1,26l-0.6,1.4l0,0l0,0l0,0l-1,2.2l0,0l0,0l0,0l-1,2.2l-1,2.2l-1,2.2l0,0l0,0l0,0l-1,2.2l-1,2.2l0,0l-0.5,1.1
		l-0.5,1.1l0,0l2.2,1l-1,2.2l-0.6,1.4l-0.6,1.4L39.2,50l-1,2.2l-2.2-1l0,0l-1,2.2l0,0l-1,2.2l-2.2-1l-1,2.2l-2.2-1l-1,2.2l0,0
		l-2.2-1l-6.5-2.9l-2.2-1l-2.2-1l-2.2-1l-2.2-1l-2.2-1l1.9-4.3l-2.2-1l1-2.2l0,0L7,41l1-2.2l1-2.2l0,0l0,0l0,0l1-2.2l1-2.2l1-2.2
		l1-2.2l0,0l0,0l0,0l1-2.2l1-2.2l1-2.2l1-2.2l1-2.2l0,0l0,0l1-2.2l1-2.2l1-2.2l1-2.2l1-2.2l0,0l0,0l0,0l1-2.2l2.2,1l0,0l0,0l0,0
		l1-2.2L28.4,3.9 M29.3,1.9L29.3,1.9l-2.2-1L25.1,0l-0.9,2.1l0,0.1l-0.1,0L22,1.2L21,3.3l-1,2.2l-1,2.2l-1,2.2l-1,2.2l-1,2.2l-1,2.2
		l-1,2.2l-1,2.2l-1,2.2l-1,2.2l-1,2.2l-1,2.2l-1,2.2l-1,2.2l-1,2.2l-1,2.2l-1,2.2L4,42.2L6,43.1l0.1,0l0,0.1l-0.9,2.1l2.1,0.9l0.1,0
		l-1,2.2l-0.9,2.1l2.1,0.9l2.2,1l2.2,1l2.2,1l2.2,1l2.2,1l6.5,2.9l2.2,1l2.1,0.9l0.9-2.1l0-0.1l0.1,0l2.1,0.9l0.9-2.1l0-0.1l0.1,0
		l2.1,0.9l0.9-2.1l1-2.2l0-0.1l0.1,0l2.1,0.9l0.9-2.1l1-2.2l0.6-1.4l0.6-1.4l0.6-1.4l1-2.2l0.9-2.1l-2.1-0.9l-0.1,0l0-0.1l1-2.2
		l1-2.2l1-2.2l1-2.2l1-2.2l1-2.2l0.6-1.4l0.3-0.7l1-2.2l1-2.2l1-2.2l1-2.2l0.9-2.1l-2.1-0.9l-0.1,0l0-0.1l0.9-2.1L51,11.4l-2.2-1
		l-2.2-1l-2.1-0.9l-0.9,2.1l0,0.1l-0.1,0l-2.1-0.9l-0.9,2.1l-1,2.2l-1,2.2l-1,2.2l0,0.1l-0.1,0l-2.2-1l-0.1,0l0,0l-2.1-0.9l-2.2-1
		l-0.1,0l0-0.1l1-2.2l1-2.2l1-2.2l0.9-2.1l-2.1-0.9l-0.1,0l0-0.1l0.9-2.1l-2.1-0.9L29.3,1.9L29.3,1.9z"/>
	<g>
		
			<rect x="13.3" y="52.2" transform="matrix(0.4024 -0.9155 0.9155 0.4024 -40.1898 45.1008)" class="st1" width="2.4" height="2.4"/>
		
			<rect x="15.4" y="53.1" transform="matrix(0.4024 -0.9155 0.9155 0.4024 -39.7674 47.6503)" class="st1" width="2.4" height="2.4"/>
		
			<rect x="17.6" y="54.1" transform="matrix(0.4024 -0.9155 0.9155 0.4024 -39.3452 50.1994)" class="st1" width="2.4" height="2.4"/>
		<rect x="19.8" y="55" transform="matrix(0.4024 -0.9155 0.9155 0.4024 -38.9227 52.7497)" class="st1" width="2.4" height="2.4"/>
		<rect x="21.9" y="56" transform="matrix(0.4024 -0.9155 0.9155 0.4024 -38.5003 55.2993)" class="st1" width="2.4" height="2.4"/>
		
			<rect x="12.3" y="54.3" transform="matrix(0.4024 -0.9155 0.9155 0.4024 -42.7399 45.5233)" class="st1" width="2.4" height="2.4"/>
		
			<rect x="14.5" y="55.3" transform="matrix(0.4024 -0.9155 0.9155 0.4024 -42.3176 48.0728)" class="st1" width="2.4" height="2.4"/>
		
			<rect x="16.6" y="56.2" transform="matrix(0.4024 -0.9155 0.9155 0.4024 -41.8953 50.6219)" class="st1" width="2.4" height="2.4"/>
		
			<rect x="18.8" y="57.2" transform="matrix(0.4024 -0.9155 0.9155 0.4024 -41.4728 53.1721)" class="st1" width="2.4" height="2.4"/>
		<rect x="21" y="58.1" transform="matrix(0.4024 -0.9155 0.9155 0.4024 -41.0504 55.7218)" class="st1" width="2.4" height="2.4"/>
		
			<rect x="13.5" y="57.4" transform="matrix(0.4024 -0.9155 0.9155 0.4024 -44.8677 48.4953)" class="st1" width="2.4" height="2.4"/>
		
			<rect x="15.7" y="58.4" transform="matrix(0.4024 -0.9155 0.9155 0.4024 -44.4454 51.0444)" class="st1" width="2.4" height="2.4"/>
		
			<rect x="17.9" y="59.3" transform="matrix(0.4024 -0.9155 0.9155 0.4024 -44.0229 53.5946)" class="st1" width="2.4" height="2.4"/>
		<rect x="20" y="60.3" transform="matrix(0.4024 -0.9155 0.9155 0.4024 -43.6005 56.1442)" class="st1" width="2.4" height="2.4"/>
		
			<rect x="12.6" y="59.6" transform="matrix(0.4024 -0.9155 0.9155 0.4024 -47.4178 48.9177)" class="st1" width="2.4" height="2.4"/>
		
			<rect x="14.7" y="60.5" transform="matrix(0.4024 -0.9155 0.9155 0.4024 -46.9955 51.4668)" class="st1" width="2.4" height="2.4"/>
		
			<rect x="16.9" y="61.5" transform="matrix(0.4024 -0.9155 0.9155 0.4024 -46.573 54.0171)" class="st1" width="2.4" height="2.4"/>
		
			<rect x="13.8" y="62.7" transform="matrix(0.4024 -0.9155 0.9155 0.4024 -49.5456 51.8893)" class="st1" width="2.4" height="2.4"/>
		
			<rect x="12.8" y="64.9" transform="matrix(0.4024 -0.9155 0.9155 0.4024 -52.0957 52.3118)" class="st1" width="2.4" height="2.4"/>
		<rect x="11.9" y="67" transform="matrix(0.4024 -0.9155 0.9155 0.4024 -54.6458 52.7342)" class="st1" width="2.4" height="2.4"/>
		<rect x="16" y="63.7" transform="matrix(0.4024 -0.9155 0.9155 0.4024 -49.1231 54.4395)" class="st1" width="2.4" height="2.4"/>
	</g>
	<g>
		
			<rect x="4.2" y="61.1" transform="matrix(0.4024 -0.9155 0.9155 0.4024 -53.7853 42.1128)" class="st0" width="2.4" height="2.4"/>
		<rect x="2" y="60.1" transform="matrix(0.4024 -0.9155 0.9155 0.4024 -54.2076 39.5636)" class="st0" width="2.4" height="2.4"/>
		<rect x="6.3" y="62" transform="matrix(0.4024 -0.9155 0.9155 0.4024 -53.3629 44.6629)" class="st0" width="2.4" height="2.4"/>
		<rect x="5.4" y="64.2" transform="matrix(0.4024 -0.9155 0.9155 0.4024 -55.913 45.0853)" class="st0" width="2.4" height="2.4"/>
		
			<rect x="6.1" y="56.7" transform="matrix(0.4024 -0.9155 0.9155 0.4024 -48.6849 41.2692)" class="st0" width="2.4" height="2.4"/>
		
			<rect x="1.8" y="54.8" transform="matrix(0.4024 -0.9155 0.9155 0.4024 -49.5286 36.1689)" class="st0" width="2.4" height="2.4"/>
		
			<rect x="4.4" y="66.4" transform="matrix(0.4024 -0.9155 0.9155 0.4024 -58.4631 45.5078)" class="st0" width="2.4" height="2.4"/>
		
			<rect x="3.5" y="68.5" transform="matrix(0.4024 -0.9155 0.9155 0.4024 -61.0132 45.9302)" class="st0" width="2.4" height="2.4"/>
		
			<rect x="1.3" y="67.6" transform="matrix(0.4024 -0.9155 0.9155 0.4024 -61.4357 43.3802)" class="st0" width="2.4" height="2.4"/>
		
			<rect x="0.4" y="69.7" transform="matrix(0.4024 -0.9155 0.9155 0.4024 -63.9858 43.8027)" class="st0" width="2.4" height="2.4"/>
		
			<rect x="6.9" y="72.6" transform="matrix(0.4024 -0.9155 0.9155 0.4024 -62.7185 51.4523)" class="st0" width="2.4" height="2.4"/>
		<rect x="4.7" y="71.6" transform="matrix(0.4024 -0.9155 0.9155 0.4024 -63.141 48.9022)" class="st0" width="2.4" height="2.4"/>
		
			<rect x="5.9" y="74.7" transform="matrix(0.4024 -0.9155 0.9155 0.4024 -65.2686 51.8747)" class="st0" width="2.4" height="2.4"/>
		
			<rect x="7.1" y="77.9" transform="matrix(0.4024 -0.9155 0.9155 0.4024 -67.3964 54.8463)" class="st0" width="2.4" height="2.4"/>
		
			<rect x="8.1" y="75.7" transform="matrix(0.4024 -0.9155 0.9155 0.4024 -64.8463 54.4241)" class="st0" width="2.4" height="2.4"/>
		
			<rect x="15.3" y="71.1" transform="matrix(0.4024 -0.9155 0.9155 0.4024 -56.3511 58.2564)" class="st0" width="2.4" height="2.4"/>
		
			<rect x="14.3" y="73.3" transform="matrix(0.4024 -0.9155 0.9155 0.4024 -58.9012 58.6788)" class="st0" width="2.4" height="2.4"/>
		
			<rect x="18.4" y="69.9" transform="matrix(0.4024 -0.9155 0.9155 0.4024 -53.3786 60.3839)" class="st0" width="2.4" height="2.4"/>
		
			<rect x="19.3" y="67.7" transform="matrix(0.4024 -0.9155 0.9155 0.4024 -50.8284 59.9614)" class="st0" width="2.4" height="2.4"/>
		<rect x="19.6" y="73" transform="matrix(0.4024 -0.9155 0.9155 0.4024 -55.5061 63.3564)" class="st0" width="2.4" height="2.4"/>
		
			<rect x="23.4" y="64.4" transform="matrix(0.4024 -0.9155 0.9155 0.4024 -45.3057 61.6667)" class="st0" width="2.4" height="2.4"/>
		
			<rect x="22.4" y="66.5" transform="matrix(0.4024 -0.9155 0.9155 0.4024 -47.8559 62.0891)" class="st0" width="2.4" height="2.4"/>
		
			<rect x="25.6" y="65.3" transform="matrix(0.4024 -0.9155 0.9155 0.4024 -44.8834 64.2162)" class="st0" width="2.4" height="2.4"/>
		<rect x="27.5" y="61" transform="matrix(0.4024 -0.9155 0.9155 0.4024 -39.7831 63.3713)" class="st0" width="2.4" height="2.4"/>
		
			<rect x="26.5" y="63.1" transform="matrix(0.4024 -0.9155 0.9155 0.4024 -42.3333 63.7938)" class="st0" width="2.4" height="2.4"/>
	</g>
	<g>
		
			<rect x="4.9" y="53.6" transform="matrix(0.4024 -0.9155 0.9155 0.4024 -46.5573 38.2963)" class="st2" width="2.4" height="2.4"/>
		
			<rect x="3.9" y="55.8" transform="matrix(0.4024 -0.9155 0.9155 0.4024 -49.1074 38.7187)" class="st2" width="2.4" height="2.4"/>
		<rect x="7" y="54.6" transform="matrix(0.4024 -0.9155 0.9155 0.4024 -46.1348 40.8467)" class="st2" width="2.4" height="2.4"/>
		
			<rect x="8.2" y="57.7" transform="matrix(0.4024 -0.9155 0.9155 0.4024 -48.2626 43.8179)" class="st2" width="2.4" height="2.4"/>
		
			<rect x="7.3" y="59.9" transform="matrix(0.4024 -0.9155 0.9155 0.4024 -50.8128 44.2404)" class="st2" width="2.4" height="2.4"/>
		<rect x="5.1" y="58.9" transform="matrix(0.4024 -0.9155 0.9155 0.4024 -51.235 41.6917)" class="st2" width="2.4" height="2.4"/>
		
			<rect x="10.4" y="58.6" transform="matrix(0.4024 -0.9155 0.9155 0.4024 -47.8402 46.368)" class="st2" width="2.4" height="2.4"/>
		
			<rect x="9.5" y="60.8" transform="matrix(0.4024 -0.9155 0.9155 0.4024 -50.3903 46.7904)" class="st2" width="2.4" height="2.4"/>
		<rect x="8.5" y="63" transform="matrix(0.4024 -0.9155 0.9155 0.4024 -52.9404 47.2129)" class="st2" width="2.4" height="2.4"/>
		
			<rect x="7.6" y="65.1" transform="matrix(0.4024 -0.9155 0.9155 0.4024 -55.4905 47.6353)" class="st2" width="2.4" height="2.4"/>
		
			<rect x="6.6" y="67.3" transform="matrix(0.4024 -0.9155 0.9155 0.4024 -58.0407 48.0573)" class="st2" width="2.4" height="2.4"/>
		
			<rect x="7.8" y="70.4" transform="matrix(0.4024 -0.9155 0.9155 0.4024 -60.1684 51.0298)" class="st2" width="2.4" height="2.4"/>
		
			<rect x="5.7" y="69.5" transform="matrix(0.4024 -0.9155 0.9155 0.4024 -60.5909 48.4798)" class="st2" width="2.4" height="2.4"/>
		
			<rect x="12.1" y="72.3" transform="matrix(0.4024 -0.9155 0.9155 0.4024 -59.3236 56.1294)" class="st2" width="2.4" height="2.4"/>
		
			<rect x="11.2" y="74.5" transform="matrix(0.4024 -0.9155 0.9155 0.4024 -61.8737 56.5519)" class="st2" width="2.4" height="2.4"/>
		<rect x="9" y="73.5" transform="matrix(0.4024 -0.9155 0.9155 0.4024 -62.2962 54.0016)" class="st2" width="2.4" height="2.4"/>
		<rect x="10" y="71.4" transform="matrix(0.4024 -0.9155 0.9155 0.4024 -59.7461 53.5791)" class="st2" width="2.4" height="2.4"/>
		<rect x="11.6" y="61.8" transform="matrix(0.4024 -0.9155 0.9155 0.4024 -49.9679 49.34)" class="st2" width="2.4" height="2.4"/>
		
			<rect x="10.7" y="63.9" transform="matrix(0.4024 -0.9155 0.9155 0.4024 -52.5181 49.7624)" class="st2" width="2.4" height="2.4"/>
		
			<rect x="9.7" y="66.1" transform="matrix(0.4024 -0.9155 0.9155 0.4024 -55.0682 50.1849)" class="st2" width="2.4" height="2.4"/>
		
			<rect x="8.8" y="68.3" transform="matrix(0.4024 -0.9155 0.9155 0.4024 -57.6183 50.6074)" class="st2" width="2.4" height="2.4"/>
		
			<rect x="10.9" y="69.2" transform="matrix(0.4024 -0.9155 0.9155 0.4024 -57.196 53.1565)" class="st2" width="2.4" height="2.4"/>
		
			<rect x="13.1" y="70.2" transform="matrix(0.4024 -0.9155 0.9155 0.4024 -56.7735 55.7069)" class="st2" width="2.4" height="2.4"/>
		
			<rect x="16.2" y="68.9" transform="matrix(0.4024 -0.9155 0.9155 0.4024 -53.801 57.8339)" class="st2" width="2.4" height="2.4"/>
		<rect x="14.1" y="68" transform="matrix(0.4024 -0.9155 0.9155 0.4024 -54.2234 55.2844)" class="st2" width="2.4" height="2.4"/>
		<rect x="15" y="65.8" transform="matrix(0.4024 -0.9155 0.9155 0.4024 -51.6732 54.862)" class="st2" width="2.4" height="2.4"/>
		
			<rect x="17.2" y="66.8" transform="matrix(0.4024 -0.9155 0.9155 0.4024 -51.2509 57.4116)" class="st2" width="2.4" height="2.4"/>
		
			<rect x="18.1" y="64.6" transform="matrix(0.4024 -0.9155 0.9155 0.4024 -48.7008 56.989)" class="st2" width="2.4" height="2.4"/>
		
			<rect x="20.3" y="65.6" transform="matrix(0.4024 -0.9155 0.9155 0.4024 -48.2783 59.5391)" class="st2" width="2.4" height="2.4"/>
		
			<rect x="19.1" y="62.5" transform="matrix(0.4024 -0.9155 0.9155 0.4024 -46.1507 56.5665)" class="st2" width="2.4" height="2.4"/>
		
			<rect x="21.2" y="63.4" transform="matrix(0.4024 -0.9155 0.9155 0.4024 -45.7282 59.1166)" class="st2" width="2.4" height="2.4"/>
		
			<rect x="22.2" y="61.2" transform="matrix(0.4024 -0.9155 0.9155 0.4024 -43.1781 58.6941)" class="st2" width="2.4" height="2.4"/>
		
			<rect x="24.3" y="62.2" transform="matrix(0.4024 -0.9155 0.9155 0.4024 -42.7558 61.2434)" class="st2" width="2.4" height="2.4"/>
		
			<rect x="23.1" y="59.1" transform="matrix(0.4024 -0.9155 0.9155 0.4024 -40.628 58.2716)" class="st2" width="2.4" height="2.4"/>
		<rect x="25.3" y="60" transform="matrix(0.4024 -0.9155 0.9155 0.4024 -40.2055 60.8216)" class="st2" width="2.4" height="2.4"/>
		<rect x="8" y="52.4" transform="matrix(0.4024 -0.9155 0.9155 0.4024 -43.5849 40.4231)" class="st2" width="2.4" height="2.4"/>
		
			<rect x="10.2" y="53.4" transform="matrix(0.4024 -0.9155 0.9155 0.4024 -43.1624 42.973)" class="st2" width="2.4" height="2.4"/>
		
			<rect x="9.2" y="55.5" transform="matrix(0.4024 -0.9155 0.9155 0.4024 -45.7125 43.3959)" class="st2" width="2.4" height="2.4"/>
		<rect x="11.4" y="56.5" transform="matrix(0.4024 -0.9155 0.9155 0.4024 -45.29 45.9457)" class="st2" width="2.4" height="2.4"/>
	</g>
	<g>
		
			<rect x="8.8" y="47.6" transform="matrix(0.4024 -0.9154 0.9154 0.4024 -38.6961 38.3019)" class="st3" width="2.4" height="2.4"/>
		<rect x="11" y="48.6" transform="matrix(0.4024 -0.9154 0.9154 0.4024 -38.2737 40.8513)" class="st3" width="2.4" height="2.4"/>
		
			<rect x="13.1" y="49.5" transform="matrix(0.4024 -0.9155 0.9155 0.4024 -37.8516 43.4035)" class="st3" width="2.4" height="2.4"/>
		
			<rect x="15.3" y="50.5" transform="matrix(0.4025 -0.9154 0.9154 0.4025 -37.4288 45.9499)" class="st3" width="2.4" height="2.4"/>
		
			<rect x="19.6" y="52.4" transform="matrix(0.4024 -0.9155 0.9155 0.4024 -36.5845 51.0532)" class="st3" width="2.4" height="2.4"/>
		
			<rect x="17.5" y="51.4" transform="matrix(0.4024 -0.9155 0.9155 0.4024 -37.0069 48.5024)" class="st3" width="2.4" height="2.4"/>
		<rect x="24" y="54.3" transform="matrix(0.4024 -0.9154 0.9154 0.4024 -35.7397 56.1496)" class="st3" width="2.4" height="2.4"/>
		
			<rect x="21.8" y="53.3" transform="matrix(0.4024 -0.9155 0.9155 0.4024 -36.1619 53.6031)" class="st3" width="2.4" height="2.4"/>
		
			<rect x="26.1" y="55.2" transform="matrix(0.4024 -0.9155 0.9155 0.4024 -35.3173 58.7015)" class="st3" width="2.4" height="2.4"/>
		
			<rect x="9.8" y="45.4" transform="matrix(0.4025 -0.9154 0.9154 0.4025 -36.1465 37.8787)" class="st3" width="2.4" height="2.4"/>
		
			<rect x="11.9" y="46.4" transform="matrix(0.4024 -0.9155 0.9155 0.4024 -35.7245 40.4312)" class="st4" width="2.4" height="2.4"/>
		
			<rect x="14.1" y="47.3" transform="matrix(0.4024 -0.9155 0.9155 0.4024 -35.3017 42.9802)" class="st4" width="2.4" height="2.4"/>
		
			<rect x="16.3" y="48.3" transform="matrix(0.4024 -0.9155 0.9155 0.4024 -34.8796 45.5326)" class="st4" width="2.4" height="2.4"/>
		
			<rect x="20.6" y="50.2" transform="matrix(0.4024 -0.9155 0.9155 0.4024 -34.035 50.6288)" class="st4" width="2.4" height="2.4"/>
		
			<rect x="18.4" y="49.3" transform="matrix(0.4024 -0.9155 0.9155 0.4024 -34.4574 48.0812)" class="st4" width="2.4" height="2.4"/>
		
			<rect x="24.9" y="52.1" transform="matrix(0.4024 -0.9154 0.9154 0.4024 -33.1903 55.7265)" class="st4" width="2.4" height="2.4"/>
		<rect x="29.2" y="54" transform="matrix(0.4024 -0.9155 0.9155 0.4024 -32.3454 60.8279)" class="st3" width="2.4" height="2.4"/>
		
			<rect x="22.7" y="51.2" transform="matrix(0.4025 -0.9154 0.9154 0.4025 -33.6123 53.1765)" class="st4" width="2.4" height="2.4"/>
		
			<rect x="27.1" y="53.1" transform="matrix(0.4024 -0.9155 0.9155 0.4024 -32.7679 58.2781)" class="st3" width="2.4" height="2.4"/>
		
			<rect x="29.7" y="41.3" transform="matrix(0.4025 -0.9154 0.9154 0.4025 -20.442 53.6137)" class="st3" width="2.4" height="2.4"/>
		<rect x="34" y="43.2" transform="matrix(0.4024 -0.9155 0.9155 0.4024 -19.596 58.718)" class="st0" width="2.4" height="2.4"/>
		
			<rect x="25.3" y="39.4" transform="matrix(0.4024 -0.9154 0.9154 0.4024 -21.2863 48.516)" class="st5" width="2.4" height="2.4"/>
		
			<rect x="23.2" y="38.4" transform="matrix(0.4025 -0.9154 0.9154 0.4025 -21.7088 45.9647)" class="st0" width="2.4" height="2.4"/>
		
			<rect x="27.5" y="40.3" transform="matrix(0.4024 -0.9155 0.9155 0.4024 -20.8632 51.0693)" class="st5" width="2.4" height="2.4"/>
		<rect x="21" y="37.5" transform="matrix(0.4025 -0.9154 0.9154 0.4025 -22.131 43.4161)" class="st6" width="2.4" height="2.4"/>
		
			<rect x="14.5" y="34.6" transform="matrix(0.4024 -0.9154 0.9154 0.4024 -23.3979 35.7672)" class="st0" width="2.4" height="2.4"/>
		
			<rect x="16.7" y="35.6" transform="matrix(0.4024 -0.9155 0.9155 0.4024 -22.9754 38.3211)" class="st0" width="2.4" height="2.4"/>
		
			<rect x="12.4" y="33.7" transform="matrix(0.4025 -0.9154 0.9154 0.4025 -23.8202 33.2175)" class="st0" width="2.4" height="2.4"/>
		
			<rect x="18.8" y="36.5" transform="matrix(0.4024 -0.9155 0.9155 0.4024 -22.5531 40.8686)" class="st0" width="2.4" height="2.4"/>
		<rect x="12.6" y="39" transform="matrix(0.4024 -0.9155 0.9155 0.4024 -28.4972 36.6147)" class="st6" width="2.4" height="2.4"/>
		
			<rect x="14.8" y="39.9" transform="matrix(0.4024 -0.9155 0.9155 0.4024 -28.0748 39.1637)" class="st6" width="2.4" height="2.4"/>
		
			<rect x="11.7" y="41.1" transform="matrix(0.4024 -0.9154 0.9154 0.4024 -31.0465 37.0341)" class="st6" width="2.4" height="2.4"/>
		
			<rect x="13.8" y="42.1" transform="matrix(0.4024 -0.9155 0.9155 0.4024 -30.6244 39.5861)" class="st6" width="2.4" height="2.4"/>
		<rect x="10.4" y="38" transform="matrix(0.4024 -0.9155 0.9155 0.4024 -28.9197 34.0642)" class="st0" width="2.4" height="2.4"/>
		<rect x="16" y="43" transform="matrix(0.4024 -0.9155 0.9155 0.4024 -30.202 42.1351)" class="st6" width="2.4" height="2.4"/>
		<rect x="9.5" y="40.2" transform="matrix(0.4024 -0.9155 0.9155 0.4024 -31.469 34.4858)" class="st6" width="2.4" height="2.4"/>
		
			<rect x="16.9" y="40.9" transform="matrix(0.4024 -0.9154 0.9154 0.4024 -27.6524 41.7121)" class="st0" width="2.4" height="2.4"/>
		<rect x="18.2" y="44" transform="matrix(0.4024 -0.9155 0.9155 0.4024 -29.7796 44.6858)" class="st6" width="2.4" height="2.4"/>
		
			<rect x="23.4" y="43.7" transform="matrix(0.4024 -0.9155 0.9155 0.4024 -26.3852 49.3626)" class="st0" width="2.4" height="2.4"/>
		
			<rect x="21.3" y="42.8" transform="matrix(0.4024 -0.9155 0.9155 0.4024 -26.8077 46.8129)" class="st0" width="2.4" height="2.4"/>
		
			<rect x="22.5" y="45.9" transform="matrix(0.4024 -0.9154 0.9154 0.4024 -28.9349 49.783)" class="st6" width="2.4" height="2.4"/>
		
			<rect x="20.3" y="44.9" transform="matrix(0.4025 -0.9154 0.9154 0.4025 -29.3573 47.2324)" class="st6" width="2.4" height="2.4"/>
		
			<rect x="27.8" y="45.6" transform="matrix(0.4025 -0.9154 0.9154 0.4025 -25.5409 54.4584)" class="st0" width="2.4" height="2.4"/>
		
			<rect x="32.1" y="47.5" transform="matrix(0.4025 -0.9154 0.9154 0.4025 -24.6963 59.5575)" class="st0" width="2.4" height="2.4"/>
		
			<rect x="26.8" y="47.8" transform="matrix(0.4024 -0.9155 0.9155 0.4024 -28.0901 54.8836)" class="st6" width="2.4" height="2.4"/>
		
			<rect x="31.1" y="49.7" transform="matrix(0.4024 -0.9154 0.9154 0.4024 -27.2454 59.9821)" class="st6" width="2.4" height="2.4"/>
		
			<rect x="25.6" y="44.7" transform="matrix(0.4024 -0.9155 0.9155 0.4024 -25.963 51.9115)" class="st0" width="2.4" height="2.4"/>
		
			<rect x="24.6" y="46.8" transform="matrix(0.4024 -0.9155 0.9155 0.4024 -28.5124 52.3338)" class="st6" width="2.4" height="2.4"/>
		
			<rect x="19.1" y="41.8" transform="matrix(0.4024 -0.9155 0.9155 0.4024 -27.2299 44.265)" class="st0" width="2.4" height="2.4"/>
		
			<rect x="13.6" y="36.8" transform="matrix(0.4024 -0.9155 0.9155 0.4024 -25.9475 36.1908)" class="st6" width="2.4" height="2.4"/>
		
			<rect x="15.7" y="37.7" transform="matrix(0.4024 -0.9155 0.9155 0.4024 -25.5251 38.7406)" class="st0" width="2.4" height="2.4"/>
		
			<rect x="11.4" y="35.8" transform="matrix(0.4024 -0.9155 0.9155 0.4024 -26.3699 33.6417)" class="st0" width="2.4" height="2.4"/>
		
			<rect x="17.9" y="38.7" transform="matrix(0.4024 -0.9154 0.9154 0.4024 -25.1027 41.2895)" class="st0" width="2.4" height="2.4"/>
		
			<rect x="24.4" y="41.5" transform="matrix(0.4024 -0.9155 0.9155 0.4024 -23.8354 48.9411)" class="st6" width="2.4" height="2.4"/>
		
			<rect x="22.2" y="40.6" transform="matrix(0.4024 -0.9154 0.9154 0.4024 -24.2581 46.3887)" class="st6" width="2.4" height="2.4"/>
		
			<rect x="28.7" y="43.4" transform="matrix(0.4024 -0.9154 0.9154 0.4024 -22.9911 54.0379)" class="st5" width="2.4" height="2.4"/>
		<rect x="33" y="45.4" transform="matrix(0.4024 -0.9155 0.9155 0.4024 -22.146 59.1388)" class="st0" width="2.4" height="2.4"/>
		
			<rect x="26.6" y="42.5" transform="matrix(0.4024 -0.9155 0.9155 0.4024 -23.413 51.4909)" class="st0" width="2.4" height="2.4"/>
		
			<rect x="20.1" y="39.6" transform="matrix(0.4024 -0.9155 0.9155 0.4024 -24.6803 43.8402)" class="st0" width="2.4" height="2.4"/>
		
			<rect x="15.5" y="32.5" transform="matrix(0.4024 -0.9155 0.9155 0.4024 -20.8481 35.3468)" class="st0" width="2.4" height="2.4"/>
		
			<rect x="17.6" y="33.4" transform="matrix(0.4024 -0.9155 0.9155 0.4024 -20.4257 37.8971)" class="st0" width="2.4" height="2.4"/>
		
			<rect x="13.3" y="31.5" transform="matrix(0.4024 -0.9155 0.9155 0.4024 -21.2707 32.7962)" class="st0" width="2.4" height="2.4"/>
		
			<rect x="19.8" y="34.4" transform="matrix(0.4024 -0.9155 0.9155 0.4024 -20.0033 40.4464)" class="st0" width="2.4" height="2.4"/>
		
			<rect x="26.3" y="37.2" transform="matrix(0.4024 -0.9155 0.9155 0.4024 -18.7363 48.0946)" class="st5" width="2.4" height="2.4"/>
		
			<rect x="24.1" y="36.3" transform="matrix(0.4024 -0.9155 0.9155 0.4024 -19.1587 45.5457)" class="st0" width="2.4" height="2.4"/>
		
			<rect x="30.6" y="39.1" transform="matrix(0.4024 -0.9155 0.9155 0.4024 -17.8913 53.195)" class="st0" width="2.4" height="2.4"/>
		<rect x="34.9" y="41" transform="matrix(0.4025 -0.9154 0.9154 0.4025 -17.0476 58.2909)" class="st0" width="2.4" height="2.4"/>
		
			<rect x="36.2" y="44.1" transform="matrix(0.4025 -0.9154 0.9154 0.4025 -19.1748 61.2636)" class="st0" width="2.4" height="2.4"/>
		
			<rect x="34.3" y="48.5" transform="matrix(0.4025 -0.9154 0.9154 0.4025 -24.2742 62.1063)" class="st0" width="2.4" height="2.4"/>
		
			<rect x="33.3" y="50.6" transform="matrix(0.4024 -0.9155 0.9155 0.4024 -26.8227 62.5339)" class="st3" width="2.4" height="2.4"/>
		
			<rect x="35.2" y="46.3" transform="matrix(0.4024 -0.9155 0.9155 0.4024 -21.7238 61.6879)" class="st0" width="2.4" height="2.4"/>
		<rect x="37.1" y="42" transform="matrix(0.4024 -0.9154 0.9154 0.4024 -16.6247 60.8424)" class="st0" width="2.4" height="2.4"/>
		
			<rect x="28.5" y="38.2" transform="matrix(0.4024 -0.9155 0.9155 0.4024 -18.314 50.6444)" class="st3" width="2.4" height="2.4"/>
		<rect x="22" y="35.3" transform="matrix(0.4024 -0.9155 0.9155 0.4024 -19.5809 42.9963)" class="st0" width="2.4" height="2.4"/>
		
			<rect x="31.8" y="42.2" transform="matrix(0.4024 -0.9155 0.9155 0.4024 -20.0183 56.169)" class="st6" width="2.4" height="2.4"/>
		
			<rect x="29.9" y="46.6" transform="matrix(0.4024 -0.9155 0.9155 0.4024 -25.1178 57.0129)" class="st0" width="2.4" height="2.4"/>
		<rect x="29" y="48.7" transform="matrix(0.4024 -0.9155 0.9155 0.4024 -27.6677 57.4332)" class="st6" width="2.4" height="2.4"/>
		
			<rect x="30.9" y="44.4" transform="matrix(0.4024 -0.9155 0.9155 0.4024 -22.5683 56.5895)" class="st3" width="2.4" height="2.4"/>
		
			<rect x="32.8" y="40.1" transform="matrix(0.4024 -0.9155 0.9155 0.4024 -17.4689 55.7448)" class="st0" width="2.4" height="2.4"/>
		
			<rect x="34.4" y="30.5" transform="matrix(0.4025 -0.9154 0.9154 0.4025 -7.6937 51.5031)" class="st3" width="2.4" height="2.4"/>
		
			<rect x="38.8" y="32.4" transform="matrix(0.4024 -0.9155 0.9155 0.4024 -6.8468 56.6068)" class="st0" width="2.4" height="2.4"/>
		
			<rect x="30.1" y="28.6" transform="matrix(0.4024 -0.9155 0.9155 0.4024 -8.5374 46.4057)" class="st6" width="2.4" height="2.4"/>
		<rect x="27.9" y="27.6" transform="matrix(0.4025 -0.9154 0.9154 0.4025 -8.9606 43.854)" class="st3" width="2.4" height="2.4"/>
		
			<rect x="32.3" y="29.5" transform="matrix(0.4024 -0.9155 0.9155 0.4024 -8.1146 48.9564)" class="st0" width="2.4" height="2.4"/>
		
			<rect x="25.8" y="26.7" transform="matrix(0.4024 -0.9155 0.9155 0.4024 -9.3822 41.3067)" class="st0" width="2.4" height="2.4"/>
		
			<rect x="19.3" y="23.8" transform="matrix(0.4024 -0.9155 0.9155 0.4024 -10.649 33.6584)" class="st0" width="2.4" height="2.4"/>
		
			<rect x="21.4" y="24.8" transform="matrix(0.4024 -0.9154 0.9154 0.4024 -10.2273 36.2058)" class="st3" width="2.4" height="2.4"/>
		
			<rect x="17.1" y="22.9" transform="matrix(0.4024 -0.9154 0.9154 0.4024 -11.0719 31.1066)" class="st6" width="2.4" height="2.4"/>
		<rect x="23.6" y="25.7" transform="matrix(0.4024 -0.9154 0.9154 0.4024 -9.805 38.7556)" class="st6" width="2.4" height="2.4"/>
		
			<rect x="17.4" y="28.1" transform="matrix(0.4024 -0.9155 0.9155 0.4024 -15.7483 34.502)" class="st0" width="2.4" height="2.4"/>
		
			<rect x="19.5" y="29.1" transform="matrix(0.4024 -0.9154 0.9154 0.4024 -15.3262 37.0504)" class="st5" width="2.4" height="2.4"/>
		
			<rect x="16.4" y="30.3" transform="matrix(0.4024 -0.9155 0.9155 0.4024 -18.2985 34.9244)" class="st0" width="2.4" height="2.4"/>
		
			<rect x="18.6" y="31.2" transform="matrix(0.4024 -0.9155 0.9155 0.4024 -17.8762 37.4735)" class="st0" width="2.4" height="2.4"/>
		
			<rect x="15.2" y="27.2" transform="matrix(0.4024 -0.9154 0.9154 0.4024 -16.171 31.9508)" class="st6" width="2.4" height="2.4"/>
		
			<rect x="20.7" y="32.2" transform="matrix(0.4024 -0.9155 0.9155 0.4024 -17.4535 40.0228)" class="st0" width="2.4" height="2.4"/>
		
			<rect x="14.3" y="29.3" transform="matrix(0.4024 -0.9155 0.9155 0.4024 -18.7206 32.3741)" class="st0" width="2.4" height="2.4"/>
		<rect x="21.7" y="30" transform="matrix(0.4024 -0.9155 0.9155 0.4024 -14.9034 39.6023)" class="st5" width="2.4" height="2.4"/>
		
			<rect x="22.9" y="33.1" transform="matrix(0.4024 -0.9155 0.9155 0.4024 -17.0311 42.5729)" class="st0" width="2.4" height="2.4"/>
		
			<rect x="28.2" y="32.9" transform="matrix(0.4024 -0.9154 0.9154 0.4024 -13.637 47.2483)" class="st5" width="2.4" height="2.4"/>
		<rect x="26" y="31.9" transform="matrix(0.4025 -0.9154 0.9154 0.4025 -14.0597 44.6978)" class="st5" width="2.4" height="2.4"/>
		
			<rect x="27.2" y="35.1" transform="matrix(0.4024 -0.9154 0.9154 0.4024 -16.1869 47.6715)" class="st5" width="2.4" height="2.4"/>
		
			<rect x="25.1" y="34.1" transform="matrix(0.4024 -0.9155 0.9155 0.4024 -16.6089 45.1227)" class="st0" width="2.4" height="2.4"/>
		
			<rect x="32.5" y="34.8" transform="matrix(0.4024 -0.9155 0.9155 0.4024 -12.791 52.3517)" class="st5" width="2.4" height="2.4"/>
		
			<rect x="36.8" y="36.7" transform="matrix(0.4024 -0.9155 0.9155 0.4024 -11.947 57.4492)" class="st3" width="2.4" height="2.4"/>
		<rect x="31.6" y="37" transform="matrix(0.4024 -0.9154 0.9154 0.4024 -15.3422 52.7709)" class="st0" width="2.4" height="2.4"/>
		
			<rect x="35.9" y="38.9" transform="matrix(0.4024 -0.9154 0.9154 0.4024 -14.4975 57.8706)" class="st0" width="2.4" height="2.4"/>
		
			<rect x="30.4" y="33.8" transform="matrix(0.4024 -0.9155 0.9155 0.4024 -13.2135 49.8021)" class="st3" width="2.4" height="2.4"/>
		<rect x="29.4" y="36" transform="matrix(0.4024 -0.9155 0.9155 0.4024 -15.7641 50.2219)" class="st3" width="2.4" height="2.4"/>
		<rect x="23.9" y="31" transform="matrix(0.4024 -0.9155 0.9155 0.4024 -14.4811 42.1514)" class="st5" width="2.4" height="2.4"/>
		<rect x="18.3" y="26" transform="matrix(0.4025 -0.9154 0.9154 0.4025 -13.1992 34.0778)" class="st0" width="2.4" height="2.4"/>
		
			<rect x="20.5" y="26.9" transform="matrix(0.4024 -0.9155 0.9155 0.4024 -12.7766 36.6287)" class="st6" width="2.4" height="2.4"/>
		<rect x="16.2" y="25" transform="matrix(0.4024 -0.9155 0.9155 0.4024 -13.621 31.5307)" class="st6" width="2.4" height="2.4"/>
		
			<rect x="22.7" y="27.9" transform="matrix(0.4024 -0.9154 0.9154 0.4024 -12.3544 39.1779)" class="st3" width="2.4" height="2.4"/>
		
			<rect x="29.1" y="30.7" transform="matrix(0.4024 -0.9155 0.9155 0.4024 -11.0868 46.8282)" class="st3" width="2.4" height="2.4"/>
		<rect x="27" y="29.8" transform="matrix(0.4024 -0.9155 0.9155 0.4024 -11.509 44.2792)" class="st3" width="2.4" height="2.4"/>
		
			<rect x="33.5" y="32.6" transform="matrix(0.4024 -0.9155 0.9155 0.4024 -10.2426 51.9263)" class="st3" width="2.4" height="2.4"/>
		<rect x="37.8" y="34.5" transform="matrix(0.4024 -0.9154 0.9154 0.4024 -9.398 57.0258)" class="st0" width="2.4" height="2.4"/>
		
			<rect x="31.3" y="31.7" transform="matrix(0.4024 -0.9154 0.9154 0.4024 -10.6652 49.3758)" class="st3" width="2.4" height="2.4"/>
		
			<rect x="24.8" y="28.8" transform="matrix(0.4024 -0.9155 0.9155 0.4024 -11.9316 41.729)" class="st3" width="2.4" height="2.4"/>
		
			<rect x="20.2" y="21.6" transform="matrix(0.4024 -0.9155 0.9155 0.4024 -8.0994 33.2352)" class="st0" width="2.4" height="2.4"/>
		
			<rect x="22.4" y="22.6" transform="matrix(0.4024 -0.9154 0.9154 0.4024 -7.6776 35.7833)" class="st3" width="2.4" height="2.4"/>
		
			<rect x="18.1" y="20.7" transform="matrix(0.4024 -0.9154 0.9154 0.4024 -8.5224 30.6843)" class="st6" width="2.4" height="2.4"/>
		
			<rect x="24.6" y="23.5" transform="matrix(0.4025 -0.9154 0.9154 0.4025 -7.2557 38.3321)" class="st6" width="2.4" height="2.4"/>
		<rect x="31" y="26.4" transform="matrix(0.4024 -0.9155 0.9155 0.4024 -5.9873 45.9841)" class="st6" width="2.4" height="2.4"/>
		
			<rect x="28.9" y="25.4" transform="matrix(0.4024 -0.9155 0.9155 0.4024 -6.4104 43.4332)" class="st3" width="2.4" height="2.4"/>
		
			<rect x="35.4" y="28.3" transform="matrix(0.4024 -0.9154 0.9154 0.4024 -5.1439 51.0809)" class="st3" width="2.4" height="2.4"/>
		
			<rect x="39.7" y="30.2" transform="matrix(0.4025 -0.9154 0.9154 0.4025 -4.2992 56.1804)" class="st0" width="2.4" height="2.4"/>
		
			<rect x="40.9" y="33.3" transform="matrix(0.4024 -0.9155 0.9155 0.4024 -6.4253 59.1548)" class="st3" width="2.4" height="2.4"/>
		<rect x="39" y="37.6" transform="matrix(0.4024 -0.9155 0.9155 0.4024 -11.5231 60.0023)" class="st3" width="2.4" height="2.4"/>
		
			<rect x="38.1" y="39.8" transform="matrix(0.4024 -0.9155 0.9155 0.4024 -14.0747 60.4211)" class="st3" width="2.4" height="2.4"/>
		<rect x="40" y="35.5" transform="matrix(0.4024 -0.9154 0.9154 0.4024 -8.9756 59.5753)" class="st3" width="2.4" height="2.4"/>
		
			<rect x="41.9" y="31.2" transform="matrix(0.4025 -0.9154 0.9154 0.4025 -3.8769 58.7299)" class="st3" width="2.4" height="2.4"/>
		
			<rect x="33.2" y="27.3" transform="matrix(0.4024 -0.9154 0.9154 0.4024 -5.5661 48.5318)" class="st0" width="2.4" height="2.4"/>
		
			<rect x="26.7" y="24.5" transform="matrix(0.4024 -0.9155 0.9155 0.4024 -6.8318 40.8855)" class="st0" width="2.4" height="2.4"/>
		<rect x="36.6" y="31.4" transform="matrix(0.4024 -0.9155 0.9155 0.4024 -7.2701 54.055)" class="st6" width="2.4" height="2.4"/>
		
			<rect x="34.7" y="35.7" transform="matrix(0.4025 -0.9154 0.9154 0.4025 -12.3704 54.8965)" class="st5" width="2.4" height="2.4"/>
		
			<rect x="33.7" y="37.9" transform="matrix(0.4024 -0.9155 0.9155 0.4024 -14.9193 55.3224)" class="st5" width="2.4" height="2.4"/>
		
			<rect x="35.6" y="33.6" transform="matrix(0.4024 -0.9155 0.9155 0.4024 -9.8189 54.4792)" class="st3" width="2.4" height="2.4"/>
		
			<rect x="38.3" y="45.1" transform="matrix(0.4024 -0.9155 0.9155 0.4024 -18.7515 63.8164)" class="st3" width="2.4" height="2.4"/>
		
			<rect x="36.4" y="49.4" transform="matrix(0.4025 -0.9154 0.9154 0.4025 -23.8517 64.657)" class="st3" width="2.4" height="2.4"/>
		
			<rect x="37.4" y="47.3" transform="matrix(0.4024 -0.9155 0.9155 0.4024 -21.3002 64.2424)" class="st3" width="2.4" height="2.4"/>
		
			<rect x="39.3" y="42.9" transform="matrix(0.4024 -0.9155 0.9155 0.4024 -16.2012 63.3954)" class="st3" width="2.4" height="2.4"/>
		
			<rect x="37.5" y="29.3" transform="matrix(0.4024 -0.9155 0.9155 0.4024 -4.7199 53.6336)" class="st6" width="2.4" height="2.4"/>
		<rect x="22.1" y="17.3" transform="matrix(0.4024 -0.9155 0.9155 0.4024 -3.0001 32.39)" class="st0" width="2.4" height="2.4"/>
		
			<rect x="24.3" y="18.3" transform="matrix(0.4024 -0.9155 0.9155 0.4024 -2.5779 34.9394)" class="st3" width="2.4" height="2.4"/>
		
			<rect x="21.2" y="19.5" transform="matrix(0.4025 -0.9154 0.9154 0.4025 -5.5513 32.8095)" class="st0" width="2.4" height="2.4"/>
		
			<rect x="23.3" y="20.4" transform="matrix(0.4024 -0.9154 0.9154 0.4024 -5.1282 35.3607)" class="st3" width="2.4" height="2.4"/>
		<rect x="20" y="16.4" transform="matrix(0.4024 -0.9155 0.9155 0.4024 -3.4227 29.8402)" class="st6" width="2.4" height="2.4"/>
		<rect x="25.5" y="21.4" transform="matrix(0.4024 -0.9155 0.9155 0.4024 -4.705 37.9121)" class="st6" width="2.4" height="2.4"/>
		<rect x="19" y="18.5" transform="matrix(0.4024 -0.9155 0.9155 0.4024 -5.9716 30.2642)" class="st6" width="2.4" height="2.4"/>
		
			<rect x="26.5" y="19.2" transform="matrix(0.4024 -0.9155 0.9155 0.4024 -2.1553 37.4896)" class="st6" width="2.4" height="2.4"/>
		
			<rect x="27.7" y="22.3" transform="matrix(0.4025 -0.9154 0.9154 0.4025 -4.2838 40.4594)" class="st0" width="2.4" height="2.4"/>
		<rect x="32.9" y="22.1" transform="matrix(0.4024 -0.9155 0.9155 0.4024 -0.8886 45.138)" class="st6" width="2.4" height="2.4"/>
		
			<rect x="30.8" y="21.1" transform="matrix(0.4024 -0.9155 0.9155 0.4024 -1.3109 42.5884)" class="st3" width="2.4" height="2.4"/>
		<rect x="32" y="24.2" transform="matrix(0.4024 -0.9155 0.9155 0.4024 -3.438 45.561)" class="st6" width="2.4" height="2.4"/>
		<rect x="29.8" y="23.3" transform="matrix(0.4024 -0.9154 0.9154 0.4024 -3.861 43.01)" class="st3" width="2.4" height="2.4"/>
		
			<rect x="37.3" y="24" transform="matrix(0.4024 -0.9155 0.9155 0.4024 -4.372131e-02 50.2377)" class="st3" width="2.4" height="2.4"/>
		<rect x="41.6" y="25.9" transform="matrix(0.4024 -0.9155 0.9155 0.4024 0.8015 55.3381)" class="st0" width="2.4" height="2.4"/>
		<rect x="36.3" y="26.1" transform="matrix(0.4024 -0.9155 0.9155 0.4024 -2.5936 50.66)" class="st3" width="2.4" height="2.4"/>
		<rect x="40.7" y="28" transform="matrix(0.4024 -0.9155 0.9155 0.4024 -1.7483 55.7605)" class="st0" width="2.4" height="2.4"/>
		<rect x="35.1" y="23" transform="matrix(0.4024 -0.9155 0.9155 0.4024 -0.4653 47.6894)" class="st0" width="2.4" height="2.4"/>
		
			<rect x="34.2" y="25.2" transform="matrix(0.4024 -0.9155 0.9155 0.4024 -3.0159 48.1103)" class="st0" width="2.4" height="2.4"/>
		
			<rect x="28.6" y="20.2" transform="matrix(0.4024 -0.9155 0.9155 0.4024 -1.7329 40.0394)" class="st0" width="2.4" height="2.4"/>
		<rect x="27.4" y="17" transform="matrix(0.4024 -0.9155 0.9155 0.4024 0.3941 37.0668)" class="st3" width="2.4" height="2.4"/>
		<rect x="33.9" y="19.9" transform="matrix(0.4024 -0.9155 0.9155 0.4024 1.6611 44.7156)" class="st3" width="2.4" height="2.4"/>
		<rect x="36.1" y="20.9" transform="matrix(0.4024 -0.9154 0.9154 0.4024 2.0829 47.2648)" class="st3" width="2.4" height="2.4"/>
		<rect x="29.6" y="18" transform="matrix(0.4024 -0.9155 0.9155 0.4024 0.8172 39.6176)" class="st3" width="2.4" height="2.4"/>
		<rect x="43.8" y="26.8" transform="matrix(0.4024 -0.9155 0.9155 0.4024 1.2229 57.8863)" class="st3" width="2.4" height="2.4"/>
		<rect x="42.8" y="29" transform="matrix(0.4024 -0.9155 0.9155 0.4024 -1.3259 58.3101)" class="st3" width="2.4" height="2.4"/>
		<rect x="39.4" y="24.9" transform="matrix(0.4024 -0.9154 0.9154 0.4024 0.3781 52.7865)" class="st6" width="2.4" height="2.4"/>
		
			<rect x="38.5" y="27.1" transform="matrix(0.4024 -0.9155 0.9155 0.4024 -2.1708 53.2103)" class="st6" width="2.4" height="2.4"/>
		<rect x="38.2" y="21.8" transform="matrix(0.4024 -0.9155 0.9155 0.4024 2.5065 49.8159)" class="st3" width="2.4" height="2.4"/>
		<rect x="42.6" y="23.7" transform="matrix(0.4025 -0.9154 0.9154 0.4025 3.3499 54.9132)" class="st0" width="2.4" height="2.4"/>
		
			<rect x="23.1" y="15.1" transform="matrix(0.4024 -0.9154 0.9154 0.4024 -0.4508 31.9667)" class="st0" width="2.4" height="2.4"/>
		
			<rect x="25.2" y="16.1" transform="matrix(0.4024 -0.9154 0.9154 0.4024 -2.841740e-02 34.5164)" class="st3" width="2.4" height="2.4"/>
		<rect x="20.9" y="14.2" transform="matrix(0.4024 -0.9155 0.9155 0.4024 -0.872 29.4189)" class="st6" width="2.4" height="2.4"/>
		<rect x="25" y="10.8" transform="matrix(0.4024 -0.9155 0.9155 0.4024 4.6494 31.1228)" class="st0" width="2.4" height="2.4"/>
		<rect x="27.1" y="11.8" transform="matrix(0.4024 -0.9154 0.9154 0.4024 5.071 33.6716)" class="st3" width="2.4" height="2.4"/>
		<rect x="22.8" y="9.9" transform="matrix(0.4025 -0.9154 0.9154 0.4025 4.2256 28.5719)" class="st6" width="2.4" height="2.4"/>
		<rect x="40.1" y="17.5" transform="matrix(0.4024 -0.9155 0.9155 0.4024 7.6062 48.9711)" class="st3" width="2.4" height="2.4"/>
		<rect x="44.5" y="19.4" transform="matrix(0.4024 -0.9155 0.9155 0.4024 8.4498 54.0696)" class="st0" width="2.4" height="2.4"/>
		<rect x="44.7" y="24.7" transform="matrix(0.4023 -0.9155 0.9155 0.4023 3.7756 57.4675)" class="st3" width="2.4" height="2.4"/>
		<rect x="46.6" y="20.3" transform="matrix(0.4024 -0.9154 0.9154 0.4024 8.8721 56.619)" class="st3" width="2.4" height="2.4"/>
		<rect x="40.4" y="22.8" transform="matrix(0.4024 -0.9154 0.9154 0.4024 2.9279 52.3639)" class="st6" width="2.4" height="2.4"/>
		<rect x="42.3" y="18.4" transform="matrix(0.4025 -0.9154 0.9154 0.4025 8.0268 51.5188)" class="st6" width="2.4" height="2.4"/>
		<rect x="24" y="13" transform="matrix(0.4024 -0.9155 0.9155 0.4024 2.0989 31.5444)" class="st0" width="2.4" height="2.4"/>
		<rect x="26.2" y="13.9" transform="matrix(0.4024 -0.9155 0.9155 0.4024 2.5219 34.0949)" class="st3" width="2.4" height="2.4"/>
		<rect x="21.9" y="12" transform="matrix(0.4025 -0.9154 0.9154 0.4025 1.6758 28.9942)" class="st6" width="2.4" height="2.4"/>
		<rect x="39.2" y="19.6" transform="matrix(0.4025 -0.9154 0.9154 0.4025 5.0543 49.391)" class="st3" width="2.4" height="2.4"/>
		<rect x="43.5" y="21.5" transform="matrix(0.4024 -0.9155 0.9155 0.4024 5.9004 54.4924)" class="st0" width="2.4" height="2.4"/>
		<rect x="45.7" y="22.5" transform="matrix(0.4024 -0.9155 0.9155 0.4024 6.3229 57.0421)" class="st3" width="2.4" height="2.4"/>
		<rect x="41.3" y="20.6" transform="matrix(0.4024 -0.9155 0.9155 0.4024 5.4781 51.9424)" class="st6" width="2.4" height="2.4"/>
		<rect x="26.9" y="6.5" transform="matrix(0.4024 -0.9155 0.9155 0.4024 9.7489 30.278)" class="st0" width="2.4" height="2.4"/>
		<rect x="29" y="7.4" transform="matrix(0.4024 -0.9155 0.9155 0.4024 10.1713 32.8277)" class="st3" width="2.4" height="2.4"/>
		<rect x="25.9" y="8.7" transform="matrix(0.4024 -0.9155 0.9155 0.4024 7.1986 30.7)" class="st0" width="2.4" height="2.4"/>
		<rect x="28.1" y="9.6" transform="matrix(0.4024 -0.9155 0.9155 0.4024 7.6217 33.2506)" class="st3" width="2.4" height="2.4"/>
		<rect x="24.7" y="5.5" transform="matrix(0.4024 -0.9154 0.9154 0.4024 9.3257 27.7279)" class="st6" width="2.4" height="2.4"/>
		<rect x="23.8" y="7.7" transform="matrix(0.4024 -0.9155 0.9155 0.4024 6.7771 28.1512)" class="st6" width="2.4" height="2.4"/>
		<rect x="42" y="13.1" transform="matrix(0.4025 -0.9154 0.9154 0.4025 12.7027 48.1235)" class="st3" width="2.4" height="2.4"/>
		
			<rect x="46.4" y="15.1" transform="matrix(0.4024 -0.9155 0.9155 0.4024 13.5505 53.2259)" class="st0" width="2.4" height="2.4"/>
		<rect x="41.1" y="15.3" transform="matrix(0.4024 -0.9155 0.9155 0.4024 10.155 48.548)" class="st3" width="2.4" height="2.4"/>
		
			<rect x="45.4" y="17.2" transform="matrix(0.4024 -0.9155 0.9155 0.4024 11.0005 53.6485)" class="st0" width="2.4" height="2.4"/>
		<rect x="48.5" y="16" transform="matrix(0.4025 -0.9154 0.9154 0.4025 13.9703 55.7732)" class="st3" width="2.4" height="2.4"/>
		
			<rect x="47.6" y="18.2" transform="matrix(0.4024 -0.9154 0.9154 0.4024 11.4216 56.1967)" class="st3" width="2.4" height="2.4"/>
		
			<rect x="44.2" y="14.1" transform="matrix(0.4024 -0.9154 0.9154 0.4024 13.1267 50.6746)" class="st6" width="2.4" height="2.4"/>
		<rect x="27.8" y="4.3" transform="matrix(0.4024 -0.9155 0.9155 0.4024 12.2988 29.8555)" class="st3" width="2.4" height="2.4"/>
		<rect x="25.7" y="3.4" transform="matrix(0.4025 -0.9154 0.9154 0.4025 11.8744 27.3047)" class="st3" width="2.4" height="2.4"/>
		
			<rect x="47.3" y="12.9" transform="matrix(0.4024 -0.9155 0.9155 0.4024 16.0992 52.8025)" class="st3" width="2.4" height="2.4"/>
		
			<rect x="45.1" y="11.9" transform="matrix(0.4024 -0.9155 0.9155 0.4024 15.6768 50.2525)" class="st3" width="2.4" height="2.4"/>
		<rect x="43.2" y="16.3" transform="matrix(0.4024 -0.9155 0.9155 0.4024 10.5787 51.099)" class="st6" width="2.4" height="2.4"/>
		
			<rect x="13.3" y="31.5" transform="matrix(0.4024 -0.9155 0.9155 0.4024 -21.2703 32.7967)" class="st0" width="2.4" height="2.4"/>
		
			<rect x="14.3" y="29.3" transform="matrix(0.4024 -0.9154 0.9154 0.4024 -18.7209 32.3736)" class="st0" width="2.4" height="2.4"/>
		
			<rect x="12.4" y="33.7" transform="matrix(0.4026 -0.9154 0.9154 0.4026 -23.8197 33.2094)" class="st6" width="2.4" height="2.4"/>
		
			<rect x="11.4" y="35.8" transform="matrix(0.4024 -0.9155 0.9155 0.4024 -26.3699 33.6424)" class="st6" width="2.4" height="2.4"/>
		<rect x="10.4" y="38" transform="matrix(0.4024 -0.9155 0.9155 0.4024 -28.9195 34.0642)" class="st6" width="2.4" height="2.4"/>
		
			<rect x="9.5" y="40.2" transform="matrix(0.4024 -0.9155 0.9155 0.4024 -31.4692 34.4858)" class="st6" width="2.4" height="2.4"/>
		
			<rect x="14.9" y="21.9" transform="matrix(0.4024 -0.9154 0.9154 0.4024 -11.4958 28.558)" class="st3" width="2.4" height="2.4"/>
		<rect x="13" y="26.2" transform="matrix(0.4024 -0.9154 0.9154 0.4024 -16.5949 29.4022)" class="st3" width="2.4" height="2.4"/>
		<rect x="14" y="24.1" transform="matrix(0.4024 -0.9155 0.9155 0.4024 -14.0451 28.982)" class="st3" width="2.4" height="2.4"/>
		
			<rect x="15.9" y="19.7" transform="matrix(0.4024 -0.9154 0.9154 0.4024 -8.9464 28.1357)" class="st3" width="2.4" height="2.4"/>
		
			<rect x="17.8" y="15.4" transform="matrix(0.4024 -0.9155 0.9155 0.4024 -3.8467 27.2916)" class="st3" width="2.4" height="2.4"/>
		
			<rect x="16.8" y="17.6" transform="matrix(0.4024 -0.9155 0.9155 0.4024 -6.3957 27.7155)" class="st3" width="2.4" height="2.4"/>
		
			<rect x="18.8" y="13.2" transform="matrix(0.4024 -0.9155 0.9155 0.4024 -1.2961 26.8702)" class="st3" width="2.4" height="2.4"/>
		<rect x="20.7" y="8.9" transform="matrix(0.4025 -0.9154 0.9154 0.4025 3.8017 26.0234)" class="st3" width="2.4" height="2.4"/>
		<rect x="19.7" y="11.1" transform="matrix(0.4025 -0.9154 0.9154 0.4025 1.2519 26.4457)" class="st3" width="2.4" height="2.4"/>
		<rect x="22.6" y="4.6" transform="matrix(0.4024 -0.9154 0.9154 0.4024 8.9017 25.1793)" class="st3" width="2.4" height="2.4"/>
		<rect x="21.6" y="6.8" transform="matrix(0.4024 -0.9155 0.9155 0.4024 6.3531 25.6026)" class="st3" width="2.4" height="2.4"/>
		
			<rect x="11.1" y="30.6" transform="matrix(0.4024 -0.9155 0.9155 0.4024 -21.6943 30.2481)" class="st3" width="2.4" height="2.4"/>
		
			<rect x="12.1" y="28.4" transform="matrix(0.4024 -0.9154 0.9154 0.4024 -19.1448 29.825)" class="st3" width="2.4" height="2.4"/>
		
			<rect x="10.2" y="32.7" transform="matrix(0.4026 -0.9154 0.9154 0.4026 -24.2433 30.6613)" class="st3" width="2.4" height="2.4"/>
		<rect x="9.2" y="34.9" transform="matrix(0.4024 -0.9155 0.9155 0.4024 -26.794 31.0938)" class="st3" width="2.4" height="2.4"/>
		
			<rect x="8.3" y="37.1" transform="matrix(0.4024 -0.9155 0.9155 0.4024 -29.3435 31.5155)" class="st3" width="2.4" height="2.4"/>
		
			<rect x="7.3" y="39.2" transform="matrix(0.4024 -0.9155 0.9155 0.4024 -31.8932 31.9372)" class="st3" width="2.4" height="2.4"/>
		
			<rect x="10.7" y="43.3" transform="matrix(0.4024 -0.9155 0.9155 0.4024 -33.5968 37.4597)" class="st6" width="2.4" height="2.4"/>
		
			<rect x="12.9" y="44.2" transform="matrix(0.4025 -0.9154 0.9154 0.4025 -33.1739 40.0051)" class="st6" width="2.4" height="2.4"/>
		<rect x="15" y="45.2" transform="matrix(0.4024 -0.9155 0.9155 0.4024 -32.7519 42.5585)" class="st6" width="2.4" height="2.4"/>
		<rect x="8.5" y="42.3" transform="matrix(0.4024 -0.9155 0.9155 0.4024 -34.0191 34.909)" class="st3" width="2.4" height="2.4"/>
		
			<rect x="17.2" y="46.1" transform="matrix(0.4024 -0.9155 0.9155 0.4024 -32.3294 45.1082)" class="st6" width="2.4" height="2.4"/>
		<rect x="21.5" y="48" transform="matrix(0.4025 -0.9154 0.9154 0.4025 -31.4847 50.2036)" class="st6" width="2.4" height="2.4"/>
		
			<rect x="19.4" y="47.1" transform="matrix(0.4024 -0.9154 0.9154 0.4024 -31.9071 47.6549)" class="st6" width="2.4" height="2.4"/>
		
			<rect x="25.9" y="49.9" transform="matrix(0.4024 -0.9155 0.9155 0.4024 -30.6398 55.3081)" class="st6" width="2.4" height="2.4"/>
		
			<rect x="30.2" y="51.8" transform="matrix(0.4024 -0.9155 0.9155 0.4024 -29.7948 60.4088)" class="st6" width="2.4" height="2.4"/>
		<rect x="23.7" y="49" transform="matrix(0.4024 -0.9155 0.9155 0.4024 -31.0623 52.7554)" class="st6" width="2.4" height="2.4"/>
		
			<rect x="32.4" y="52.8" transform="matrix(0.4024 -0.9155 0.9155 0.4024 -29.3728 62.9555)" class="st3" width="2.4" height="2.4"/>
		<rect x="28" y="50.9" transform="matrix(0.4024 -0.9154 0.9154 0.4024 -30.2177 57.8537)" class="st6" width="2.4" height="2.4"/>
	</g>
</g>
</svg>
