<svg
  class="landingpage-badge__circle-animation"
  version="1.1"
  id="Ebene_1"
  xmlns="http://www.w3.org/2000/svg"
  xmlns:xlink="http://www.w3.org/1999/xlink"
  x="0px"
  y="0px"
  viewBox="0 0 144.6 148.3"
  style="enable-background: new 0 0 144.6 148.3;"
  xml:space="preserve"
>
            <style type="text/css">
              .st0 {
                fill: #ffffff;
              }
            </style>
            <path
    class="st0"
    d="M18.1,39.8l-1.2,2.3L10,41l4.9,5l-1.2,2.3L2.4,46.4l1.3-2.5l6.9,1.3L5.7,40l1-2l7.1,1.1l-5-4.9l1.3-2.5
      L18.1,39.8z M31.8,16.1l4-2.7l1.3,1.9l-4,2.7l1.1,1.6l4.6-3.1l1.3,1.9L33.3,23l-6.1-9l6.8-4.6l1.3,1.9l-4.6,3.1L31.8,16.1z
      M83.7,8.7l-1.1,1.7l-2.8-0.6L86.5,0l2.5,0.5l2.3,11.6l-2.8-0.6l-0.3-2L83.7,8.7z M87.1,3.3L85,6.6l2.8,0.6L87.1,3.3z M114.3,21
      l-1.6-1.3l-2,2.5l-2.1-1.7l6.8-8.5l3.7,3c2.1,1.7,2.6,4,1.2,5.8c-0.9,1.1-2.1,1.6-3.5,1.4l-0.4,4.6l-2.5-2L114.3,21z M115.7,19.1
      c0.8,0.6,1.8,0.7,2.4,0c0.5-0.7,0.3-1.6-0.6-2.3l-1.6-1.2l-1.8,2.3L115.7,19.1z M135.2,41.3l2.1,4.3l-2.1,1l-2.1-4.3l-1.7,0.8
      l2.4,4.9l-2.1,1l-3.6-7.4l9.8-4.8l3.6,7.4l-2.1,1l-2.4-4.9L135.2,41.3z M131,99.7l0.9-2.5l3.8,1.4l1.5-4.2l-3.8-1.4l0.9-2.5
      l10.2,3.7l-0.9,2.5l-4.1-1.5l-1.5,4.2l4.1,1.5l-0.9,2.5L131,99.7z M118.1,118.3l1.9-2l7.9,7.5l-1.9,2L118.1,118.3z M99,135.1
      l1.9-0.8l-1.2-2.9l2.5-1.1l4.3,10l-4.4,1.9c-2.5,1.1-4.7,0.4-5.7-1.7c-0.6-1.3-0.4-2.6,0.4-3.7l-3.9-2.5l2.9-1.2L99,135.1z
      M100,137.3c-1,0.4-1.5,1.3-1.1,2.1c0.3,0.8,1.3,1,2.3,0.6l1.8-0.8l-1.2-2.7L100,137.3z M71.4,137.4l2.7,0l0,10.9l-2.7,0L71.4,137.4
      z M42.5,130.1l1.9,0.8l2.4,7.6l2.4-5.5l2.5,1.1l-4.3,10l-1.9-0.8l-2.4-7.7l-2.4,5.6l-2.5-1.1L42.5,130.1z M19.5,109.6l1.3,1.6
      l-0.9,0.9c1.2,0,2.4,0.5,3.4,1.7c2.2,2.6,1.8,6-0.6,8c-2.6,2.1-6.1,1.7-8.1-0.8c-1.7-2.1-2-4.8-0.3-6.8l1.8,2.2
      c-0.7,1.2-0.3,2.2,0.3,3c1.2,1.5,3,1.6,4.5,0.4c1.3-1.1,1.6-2.9,0.4-4.4c-0.8-1-1.9-1.3-3-1.1l1.9,2.4l-1.6,1.3l-3.7-4.5L19.5,109.6
      z M7.7,92.2l-7,2.1L0,91.6L7.1,90L7.7,92.2z M10.1,91.8c-0.7,0.2-1.5-0.3-1.7-1c-0.2-0.7,0.2-1.5,0.9-1.7s1.5,0.3,1.7,1
      C11.2,90.8,10.8,91.6,10.1,91.8z"
  />
          </svg>
